#!OML:ASF I:\Random Stuff\random\construction\7_22_03\Session 2\subj1.ASF
:FULLY-SPECIFIED
:DEGREES
888
root -9.12209 17.7027 -5.32835 -494.194 75.0106 -508.05
lowerback 13.2454 1.92993 -6.7502
upperback 6.3979 2.30376 -7.33047
thorax -0.568632 1.40165 -4.22628
lowerneck -20.6209 -1.82523 -0.706613
upperneck 31.5275 -2.96619 3.93881
head 14.3704 -0.550634 1.24751
rclavicle 1.59028e-015 -6.04305e-014
rhumerus 29.6343 66.4022 -17.3599
rradius 83.6999
rwrist 17.4721
rhand -28.0936 14.9661
rfingers 7.12502
rthumb -1.47635 -15.0086
lclavicle 1.59028e-015 -6.04305e-014
lhumerus 20.6939 -60.6178 75.1593
lradius 35.3573
lwrist -8.78059
lhand -26.8031 55.2606
lfingers 7.12502
lthumb -0.229903 85.2402
rfemur -9.31537 -5.19143 21.795
rtibia -1.82882e-014
rfoot -0.978574 -9.46228
rtoes -22.0385
lfemur -31.925 -5.51788 -5.42976
ltibia 31.9406
lfoot -13.2694 2.35452
ltoes -31.5916
889
root -9.12589 17.7028 -5.32628 -494.186 74.9927 -507.973
lowerback 13.3661 1.93446 -6.75435
upperback 6.40138 2.29497 -7.29184
thorax -0.632046 1.39708 -4.18736
lowerneck -20.6072 -1.81769 -0.757637
upperneck 31.5041 -2.92928 3.91712
head 14.3559 -0.545364 1.25363
rclavicle -1.59028e-015 -1.145e-013
rhumerus 29.6607 66.3823 -17.3332
rradius 83.6752
rwrist 16.937
rhand -28.1018 15.2179
rfingers 7.12502
rthumb -1.48424 -14.7567
lclavicle -1.59028e-015 -1.145e-013
lhumerus 20.727 -60.6637 75.0952
lradius 35.4129
lwrist -8.75183
lhand -26.7717 55.2514
lfingers 7.12502
lthumb -0.19956 85.2311
rfemur -9.23476 -5.18933 21.8217
rtibia 2.38542e-015
rfoot -1.06181 -9.4285
rtoes -21.5093
lfemur -31.865 -5.45271 -5.41794
ltibia 31.9445
lfoot -13.2673 2.29574
ltoes -31.5781
890
root -9.1296 17.7021 -5.32612 -494.26 74.9539 -508.018
lowerback 13.4618 1.92055 -6.71074
upperback 6.39444 2.26925 -7.27831
thorax -0.691089 1.38558 -4.19859
lowerneck -20.6036 -1.81591 -0.797361
upperneck 31.5016 -2.91346 3.92198
head 14.3542 -0.542919 1.26532
rclavicle 2.38542e-014 -2.54444e-014
rhumerus 29.5265 66.3261 -17.4992
rradius 83.6805
rwrist 16.132
rhand -27.834 15.4244
rfingers 7.12502
rthumb -1.22563 -14.5519
lclavicle 2.38542e-014 -2.54444e-014
lhumerus 20.801 -60.7436 74.9882
lradius 35.4404
lwrist -8.68505
lhand -26.7669 55.155
lfingers 7.12502
lthumb -0.19492 85.1346
rfemur -9.20661 -5.22487 21.8391
rtibia 1.03368e-014
rfoot -1.06106 -9.42165
rtoes -21.4409
lfemur -31.866 -5.45224 -5.40772
ltibia 31.9542
lfoot -13.2298 2.26476
ltoes -31.4571
891
root -9.12967 17.7014 -5.3282 -494.182 74.9676 -507.976
lowerback 13.3909 1.91418 -6.68222
upperback 6.40234 2.27254 -7.27882
thorax -0.643834 1.38674 -4.2117
lowerneck -20.6439 -1.79874 -0.798648
upperneck 31.5116 -2.88452 3.90842
head 14.3663 -0.532366 1.26536
rclavicle -1.90833e-014 6.67916e-014
rhumerus 29.3923 66.2041 -17.7008
rradius 83.6882
rwrist 15.4156
rhand -27.4591 15.2779
rfingers 7.12502
rthumb -0.863543 -14.7001
lclavicle -1.90833e-014 6.67916e-014
lhumerus 20.8663 -60.7012 74.9416
lradius 35.3801
lwrist -8.83349
lhand -26.7533 54.924
lfingers 7.12502
lthumb -0.18181 84.9037
rfemur -9.26157 -5.20548 21.8404
rtibia 0
rfoot -1.00196 -9.4555
rtoes -21.7828
lfemur -31.9039 -5.47722 -5.39436
ltibia 31.9605
lfoot -13.2163 2.29134
ltoes -31.309
892
root -9.12863 17.7015 -5.32918 -494.029 75.0224 -507.863
lowerback 13.2947 1.93177 -6.67523
upperback 6.40894 2.3078 -7.28658
thorax -0.583684 1.40342 -4.22381
lowerneck -20.7189 -1.79011 -0.796576
upperneck 31.5476 -2.86419 3.87834
head 14.3975 -0.5266 1.257
rclavicle 1.74931e-014 5.725e-014
rhumerus 29.1605 66.0931 -17.9547
rradius 83.6737
rwrist 15.0349
rhand -27.702 14.6071
rfingers 7.12502
rthumb -1.09811 -15.3699
lclavicle 1.74931e-014 5.725e-014
lhumerus 20.8956 -60.6086 74.9724
lradius 35.2567
lwrist -9.17466
lhand -26.7219 54.688
lfingers 7.12502
lthumb -0.151471 84.6677
rfemur -9.32607 -5.14417 21.826
rtibia 7.95139e-015
rfoot -0.977014 -9.46255
rtoes -21.9656
lfemur -31.9294 -5.44903 -5.40365
ltibia 31.9663
lfoot -13.2479 2.34097
ltoes -31.4943
893
root -9.13022 17.7021 -5.3298 -494.095 75.0377 -507.942
lowerback 13.3049 1.9299 -6.64734
upperback 6.39502 2.30595 -7.30971
thorax -0.602129 1.40398 -4.26483
lowerneck -20.7391 -1.78362 -0.749797
upperneck 31.5572 -2.85067 3.81464
head 14.4036 -0.524027 1.22543
rclavicle -3.18055e-014 -6.36111e-015
rhumerus 28.8229 66.0436 -18.3057
rradius 83.6485
rwrist 14.84
rhand -28.4072 13.7643
rfingers 7.12502
rthumb -1.77922 -16.2081
lclavicle -3.18055e-014 -6.36111e-015
lhumerus 20.9087 -60.6518 74.8999
lradius 35.2772
lwrist -9.34695
lhand -26.6272 54.7323
lfingers 7.12502
lthumb -0.0600311 84.712
rfemur -9.35348 -5.14898 21.7944
rtibia -3.10104e-014
rfoot -0.943258 -9.45199
rtoes -22.0314
lfemur -31.9511 -5.44297 -5.44155
ltibia 31.9691
lfoot -13.2682 2.36854
ltoes -31.7881
894
root -9.13229 17.7016 -5.33084 -494.159 75.033 -508.003
lowerback 13.3082 1.90509 -6.62304
upperback 6.39751 2.27654 -7.32228
thorax -0.600844 1.39038 -4.28786
lowerneck -20.7234 -1.7566 -0.63721
upperneck 31.512 -2.80829 3.67906
head 14.3735 -0.513713 1.15715
rclavicle -1.59028e-014 -3.18055e-015
rhumerus 28.7511 65.9958 -18.4633
rradius 83.56
rwrist 14.6299
rhand -28.8109 13.5041
rfingers 7.12502
rthumb -2.1691 -16.4646
lclavicle -1.59028e-014 -3.18055e-015
lhumerus 20.9636 -60.6983 74.6981
lradius 35.3965
lwrist -9.27334
lhand -26.5887 54.712
lfingers 7.12502
lthumb -0.0228547 84.6918
rfemur -9.36663 -5.16392 21.7828
rtibia -1.66979e-014
rfoot -0.882366 -9.46251
rtoes -22.2952
lfemur -31.9579 -5.44769 -5.45946
ltibia 31.9651
lfoot -13.2403 2.3535
ltoes -31.6032
895
root -9.13171 17.7015 -5.33186 -494.068 75.0721 -507.913
lowerback 13.2614 1.88783 -6.60949
upperback 6.40339 2.26157 -7.33758
thorax -0.568748 1.38314 -4.30722
lowerneck -20.7429 -1.73261 -0.575034
upperneck 31.4994 -2.76309 3.57568
head 14.3674 -0.502689 1.11192
rclavicle -1.74931e-014 -8.26944e-014
rhumerus 28.9169 65.9609 -18.4256
rradius 83.4339
rwrist 14.281
rhand -28.9956 13.6385
rfingers 7.12502
rthumb -2.34747 -16.3283
lclavicle -1.74931e-014 -8.26944e-014
lhumerus 20.9637 -60.6721 74.5236
lradius 35.55
lwrist -8.96691
lhand -26.694 54.4298
lfingers 7.12502
lthumb -0.124515 84.4095
rfemur -9.38159 -5.11924 21.7709
rtibia -3.97569e-015
rfoot -0.848866 -9.45766
rtoes -22.5572
lfemur -31.9407 -5.43046 -5.46959
ltibia 31.9585
lfoot -13.2049 2.37812
ltoes -31.3794
896
root -9.12957 17.702 -5.33174 -494.008 75.1192 -507.851
lowerback 13.2372 1.87377 -6.61192
upperback 6.38316 2.24284 -7.367
thorax -0.576445 1.37437 -4.33415
lowerneck -20.7685 -1.72437 -0.55386
upperneck 31.558 -2.74561 3.54024
head 14.3976 -0.495942 1.09808
rclavicle 2.38542e-014 6.36111e-014
rhumerus 29.0225 65.9413 -18.4718
rradius 83.3553
rwrist 13.8531
rhand -29.0045 13.692
rfingers 7.12502
rthumb -2.35609 -16.2748
lclavicle 2.38542e-014 6.36111e-014
lhumerus 20.703 -60.5569 74.5653
lradius 35.856
lwrist -8.25627
lhand -26.722 54.2535
lfingers 7.12502
lthumb -0.151579 84.2332
rfemur -9.37861 -5.07409 21.7482
rtibia 3.97569e-015
rfoot -0.852618 -9.43741
rtoes -22.6623
lfemur -31.9073 -5.44097 -5.47764
ltibia 31.9549
lfoot -13.2168 2.44203
ltoes -31.3433
897
root -9.12833 17.7026 -5.33077 -493.91 75.1507 -507.763
lowerback 13.2123 1.8656 -6.59568
upperback 6.36536 2.23454 -7.39862
thorax -0.580339 1.37124 -4.37522
lowerneck -20.8025 -1.73285 -0.518556
upperneck 31.5972 -2.76105 3.50899
head 14.4218 -0.501578 1.07702
rclavicle -1.27222e-014 -3.18055e-014
rhumerus 28.9089 65.856 -18.7162
rradius 83.325
rwrist 13.6041
rhand -28.7604 13.2364
rfingers 7.12502
rthumb -2.12034 -16.7328
lclavicle -1.27222e-014 -3.18055e-014
lhumerus 20.261 -60.2909 74.7853
lradius 36.4134
lwrist -6.92842
lhand -26.6178 53.9598
lfingers 7.12502
lthumb -0.0509296 83.9395
rfemur -9.39559 -5.03419 21.7446
rtibia -1.11319e-014
rfoot -0.850106 -9.43055
rtoes -22.6521
lfemur -31.8944 -5.44154 -5.4689
ltibia 31.9488
lfoot -13.2441 2.48109
ltoes -31.2582
898
root -9.12924 17.7028 -5.33205 -493.897 75.1726 -507.758
lowerback 13.2009 1.85207 -6.50421
upperback 6.38237 2.23364 -7.45568
thorax -0.550878 1.37503 -4.48653
lowerneck -20.8652 -1.74674 -0.491611
upperneck 31.5833 -2.79244 3.49811
head 14.4298 -0.513938 1.06157
rclavicle 3.18055e-015 8.90555e-014
rhumerus 28.5407 65.6915 -19.1788
rradius 83.3089
rwrist 13.619
rhand -27.8597 13.4116
rfingers 7.12502
rthumb -1.25042 -16.5644
lclavicle 3.18055e-015 8.90555e-014
lhumerus 19.757 -59.8291 75.1741
lradius 37.0334
lwrist -5.52159
lhand -26.3657 53.2594
lfingers 7.12502
lthumb 0.192587 83.2391
rfemur -9.40913 -5.01913 21.7221
rtibia -1.66979e-014
rfoot -0.840407 -9.4258
rtoes -22.5664
lfemur -31.896 -5.45377 -5.48567
ltibia 31.9394
lfoot -13.2517 2.49119
ltoes -31.2084
899
root -9.13034 17.7027 -5.33386 -493.982 75.1935 -507.835
lowerback 13.2109 1.8421 -6.4049
upperback 6.41892 2.24075 -7.52682
thorax -0.510718 1.3844 -4.61917
lowerneck -20.9621 -1.76932 -0.49959
upperneck 31.5976 -2.85122 3.5677
head 14.4612 -0.529274 1.08063
rclavicle 1.90833e-014 7.95139e-014
rhumerus 28.0443 65.5211 -19.738
rradius 83.2998
rwrist 13.8596
rhand -27.2309 13.2079
rfingers 7.12502
rthumb -0.643102 -16.7709
lclavicle 1.90833e-014 7.95139e-014
lhumerus 19.1493 -59.129 75.8673
lradius 37.4102
lwrist -4.83387
lhand -25.7559 52.5336
lfingers 7.12502
lthumb 0.78152 82.512
rfemur -9.3941 -5.02047 21.6831
rtibia 1.43125e-014
rfoot -0.829265 -9.42265
rtoes -22.5784
lfemur -31.8857 -5.47476 -5.52268
ltibia 31.9332
lfoot -13.255 2.49101
ltoes -31.2571
